#!OML:ASF F:\VICON\USERDATA\INSTALL\Justin_Nancy\Justin_Nancy.ASF
:FULLY-SPECIFIED
:DEGREES
78
root 0.719626 17.3508 -14.6615 -0.753308 2.18231 3.03759
lowerback 5.14171 -2.35548 -4.818
upperback 0.437748 -3.36291 2.17451
thorax -2.02032 -1.63367 5.17739
lowerneck -17.1904 -2.28888 -9.14299
upperneck 22.4544 -1.60061 3.86972
head 10.1184 -1.07306 2.67711
rclavicle 1.61016e-014 -1.66979e-014
rhumerus -38.696 -19.7325 -72.9661
rradius 23.2858
rwrist 17.106
rhand -10.8883 10.3671
rfingers 7.12502
rthumb 15.1281 -19.06
lclavicle 1.61016e-014 -1.66979e-014
lhumerus -22.7717 9.63282 82.8591
lradius 28.1441
lwrist -9.71445
lhand -17.6988 25.749
lfingers 7.12502
lthumb 8.56102 55.5554
rfemur -24.4054 2.30341 18.0086
rtibia 24.429
rfoot -0.803373 -0.769036
rtoes -6.00134
lfemur 9.45863 -4.35446 -26.6825
ltibia 32.5091
lfoot -5.10247 -5.7452
ltoes -21.402
79
root 0.707014 17.3651 -14.4842 -0.911384 1.70842 3.0624
lowerback 5.11599 -2.29552 -4.79142
upperback 0.425002 -3.28075 2.16428
thorax -2.0314 -1.5922 5.14632
lowerneck -16.7814 -2.13362 -9.14169
upperneck 22.2247 -1.40773 3.80706
head 9.94438 -0.989737 2.6774
rclavicle -3.926e-014 -1.59028e-014
rhumerus -38.7032 -19.9835 -72.674
rradius 22.8345
rwrist 17.5681
rhand -10.9363 10.9369
rfingers 7.12502
rthumb 15.0818 -18.4937
lclavicle -3.926e-014 -1.59028e-014
lhumerus -23.2244 10.1833 82.765
lradius 28.0098
lwrist -10.0047
lhand -17.7714 24.5426
lfingers 7.12502
lthumb 8.49097 54.3519
rfemur -23.9732 2.40143 18.2091
rtibia 24.9971
rfoot -1.16564 -0.00887063
rtoes -4.18572
lfemur 8.92482 -3.9621 -26.6602
ltibia 34.1867
lfoot -2.8468 -6.29574
ltoes -21.3347
80
root 0.688441 17.3827 -14.3098 -0.99499 1.34425 2.9702
lowerback 5.02153 -2.15771 -4.62936
upperback 0.521338 -3.08359 2.1285
thorax -1.9136 -1.50076 4.99871
lowerneck -16.5928 -2.16989 -9.18298
upperneck 21.9328 -1.48658 3.89939
head 9.81136 -1.01423 2.70207
rclavicle 5.11374e-014 9.54166e-015
rhumerus -38.5266 -20.5606 -72.4696
rradius 22.4595
rwrist 17.9531
rhand -10.878 10.9718
rfingers 7.12502
rthumb 15.138 -18.4546
lclavicle 5.11374e-014 9.54166e-015
lhumerus -23.3777 10.465 82.7614
lradius 27.7974
lwrist -10.4218
lhand -17.7538 23.0216
lfingers 7.12502
lthumb 8.50796 52.8302
rfemur -23.4925 2.49759 18.5622
rtibia 25.3674
rfoot -1.3309 0.455106
rtoes -2.90269
lfemur 8.12646 -3.507 -26.3639
ltibia 36.0027
lfoot -0.153836 -6.97905
ltoes -19.7168
81
root 0.661615 17.4122 -14.1268 -1.15752 1.53086 2.63598
lowerback 5.13407 -2.19549 -4.39668
upperback 0.54509 -3.12271 2.24082
thorax -1.95345 -1.52118 4.99145
lowerneck -16.462 -2.27756 -9.29408
upperneck 21.7744 -1.62985 3.94441
head 9.74317 -1.0825 2.71508
rclavicle -5.49143e-014 7.15625e-015
rhumerus -38.5815 -20.3973 -72.4732
rradius 22.5843
rwrist 17.8393
rhand -10.6664 10.8351
rfingers 7.12502
rthumb 15.3419 -18.5758
lclavicle -5.49143e-014 7.15625e-015
lhumerus -23.6272 10.6419 82.8476
lradius 27.4267
lwrist -10.6833
lhand -18.0351 22.473
lfingers 7.12502
lthumb 8.23646 52.2924
rfemur -22.737 2.84884 19.072
rtibia 25.5468
rfoot -1.24814 -0.06212
rtoes -0.255549
lfemur 7.22819 -3.37703 -25.6249
ltibia 37.9703
lfoot 2.99072 -7.94905
ltoes -18.2905
82
root 0.634337 17.4411 -13.9504 -1.29057 1.88083 2.36817
lowerback 5.32701 -2.34655 -4.21887
upperback 0.440924 -3.31968 2.32489
thorax -2.15109 -1.6128 5.00349
lowerneck -16.3489 -2.22962 -9.22886
upperneck 21.903 -1.57362 3.861
head 9.76229 -1.06433 2.68414
rclavicle 3.03644e-014 -3.4191e-014
rhumerus -38.8618 -19.5614 -72.7688
rradius 23.0465
rwrist 17.1683
rhand -10.3445 10.5856
rfingers 7.12502
rthumb 15.6519 -18.8013
lclavicle 3.03644e-014 -3.4191e-014
lhumerus -24.1633 10.9488 82.7688
lradius 27.244
lwrist -10.8395
lhand -17.8277 22.2685
lfingers 7.12502
lthumb 8.43661 52.08
rfemur -21.9128 3.16966 19.4901
rtibia 25.5374
rfoot -1.05874 -0.706817
rtoes 2.35736
lfemur 6.10996 -3.35403 -24.9293
ltibia 40.1155
lfoot 6.17866 -8.87937
ltoes -16.7097
83
root 0.613372 17.4665 -13.7804 -1.33987 1.78187 2.24071
lowerback 5.3207 -2.34986 -4.13052
upperback 0.430597 -3.31788 2.35961
thorax -2.16139 -1.6121 4.98971
lowerneck -16.3729 -2.1601 -9.17664
upperneck 22.0262 -1.46606 3.76691
head 9.80169 -1.0234 2.65819
rclavicle 3.05134e-014 -6.36111e-015
rhumerus -38.7897 -19.1474 -73.0116
rradius 23.1985
rwrist 16.8035
rhand -10.3183 10.4237
rfingers 7.12502
rthumb 15.6771 -18.9612
lclavicle 3.05134e-014 -6.36111e-015
lhumerus -24.4831 11.1026 82.763
lradius 27.1728
lwrist -10.9319
lhand -17.4945 22.2381
lfingers 7.12502
lthumb 8.75816 52.0364
rfemur -21.1049 3.63571 19.8044
rtibia 25.2914
rfoot -0.757785 -0.852864
rtoes 3.11619
lfemur 4.84522 -3.06666 -24.5348
ltibia 42.3667
lfoot 8.76226 -9.40303
ltoes -15.0459
84
root 0.59631 17.4953 -13.6163 -1.37647 1.2375 2.03658
lowerback 5.36552 -2.14567 -3.92834
upperback 0.456513 -3.03375 2.40034
thorax -2.20073 -1.47111 4.90266
lowerneck -16.5446 -2.23222 -9.19716
upperneck 22.2348 -1.54468 3.7634
head 9.91449 -1.06508 2.65284
rclavicle 1.97791e-014 -3.18055e-015
rhumerus -38.4983 -19.2978 -72.9974
rradius 22.9086
rwrist 16.8018
rhand -10.2621 11.2214
rfingers 7.12502
rthumb 15.7312 -18.1592
lclavicle 1.97791e-014 -3.18055e-015
lhumerus -24.5615 11.0105 82.8982
lradius 26.9082
lwrist -11.1317
lhand -17.3329 22.2014
lfingers 7.12502
lthumb 8.91413 51.993
rfemur -20.3052 4.40987 20.232
rtibia 24.8532
rfoot -0.639883 -0.96039
rtoes 3.42736
lfemur 3.51526 -2.38138 -24.1125
ltibia 44.681
lfoot 11.1144 -9.84929
ltoes -13.4192
85
root 0.568703 17.5297 -13.4523 -1.43957 1.38144 1.5203
lowerback 5.59943 -2.15492 -3.51035
upperback 0.427393 -3.02346 2.54262
thorax -2.37682 -1.46401 4.82696
lowerneck -16.7917 -2.31676 -9.22219
upperneck 22.491 -1.64565 3.81346
head 10.0609 -1.11156 2.66479
rclavicle -1.99282e-014 3.97569e-015
rhumerus -38.267 -19.1735 -73.0468
rradius 22.7974
rwrist 16.8336
rhand -10.0727 11.9214
rfingers 7.12502
rthumb 15.9136 -17.4448
lclavicle -1.99282e-014 3.97569e-015
lhumerus -24.8286 10.8933 83.0305
lradius 26.6753
lwrist -11.3469
lhand -17.9511 20.2148
lfingers 7.12502
lthumb 8.31757 50.031
rfemur -19.3275 5.09293 20.9859
rtibia 24.3248
rfoot -0.664944 -1.79166
rtoes 3.1035
lfemur 2.02552 -2.21473 -23.2009
ltibia 47.1206
lfoot 13.9297 -10.2672
ltoes -10.494
